<svg width="1148" height="768" viewBox="0 0 1148 768" fill="none" xmlns="http://www.w3.org/2000/svg">
<path opacity="0.05" d="M1100.25 517.31C1100.25 517.31 1164.92 398.252 1100.25 408.988C1035.59 419.725 901.978 398.997 958.087 304.158C1014.2 209.32 1013.15 135.943 903.931 166.001C794.711 196.058 744.491 207.016 708.221 125.509C671.95 44.0008 521.287 7.75468 501.757 108.537C482.227 209.32 491.621 260.168 382.297 271.432C272.974 282.696 241.993 345.115 295.295 384.104C348.597 423.093 225.482 512.39 348.275 534.571C471.067 556.753 1100.25 517.31 1100.25 517.31Z" fill="#3FC9EE"/>
<path d="M699.618 615.857C945.777 615.857 1145.33 585.19 1145.33 547.359C1145.33 509.529 945.777 478.861 699.618 478.861C453.46 478.861 253.909 509.529 253.909 547.359C253.909 585.19 453.46 615.857 699.618 615.857Z" fill="#F4F4F4"/>
<path d="M399.933 455.68H863.444C867.21 455.68 870.292 452.751 870.292 449.171V125.862C870.292 122.282 867.21 119.353 863.444 119.353H399.933C396.167 119.353 393.085 122.282 393.085 125.862V449.172C393.085 452.751 396.167 455.68 399.933 455.68Z" fill="#EDEDED"/>
<path d="M863.4 119.353H399.976C396.186 119.353 393.085 122.3 393.085 125.903V141.802H870.291V125.903C870.291 122.3 867.191 119.353 863.4 119.353Z" fill="white"/>
<path d="M420.457 130.451C420.446 133.169 418.118 135.363 415.259 135.352C412.4 135.342 410.091 133.129 410.103 130.411C410.114 127.693 412.442 125.499 415.301 125.51C418.16 125.521 420.469 127.733 420.457 130.451Z" fill="#C9C9C9"/>
<path d="M436.564 130.514C436.553 133.231 434.225 135.426 431.366 135.415C428.507 135.404 426.198 133.192 426.21 130.474C426.221 127.756 428.549 125.561 431.408 125.572C434.268 125.583 436.575 127.796 436.564 130.514Z" fill="#C9C9C9"/>
<path d="M452.672 130.576C452.661 133.294 450.333 135.489 447.474 135.478C444.615 135.467 442.306 133.254 442.318 130.536C442.329 127.819 444.657 125.624 447.516 125.635C450.375 125.646 452.684 127.859 452.672 130.576Z" fill="#C9C9C9"/>
<path d="M983.488 551.312C983.488 551.312 997.304 553.556 1012.15 553.556C1025.91 553.556 1039.18 551.312 1039.18 551.312L1038.1 549.035C1033.36 539.026 1015.41 542.919 1011.34 532.59C1007.94 542.919 989.311 539.026 984.567 549.035L983.488 551.312Z" fill="#ECE8EC"/>
<path d="M1007.94 540.128H1015.41V473.628H1007.94V540.128Z" fill="#ECE8EC"/>
<path d="M1010.07 534.676L1006.81 527.899L999.663 530.4L1001.65 537.372L1010.07 534.676Z" fill="#F5D09F"/>
<path d="M1010.05 534.572L1011.77 540.109L1004.22 542.378C1004.22 542.378 987.165 549.182 983.989 546.027C982.534 544.582 988.084 543.155 991.646 540.914C995.209 538.672 1000.8 535.506 1000.8 535.506C1000.8 535.506 1005.72 535.682 1010.05 534.572Z" fill="#0B4870"/>
<path d="M972.325 544.691L971.213 537.315L963.617 537.796L963.447 545.017L972.325 544.691Z" fill="#F5D09F"/>
<path d="M972.344 544.588V550.36L964.424 550.509C964.424 550.509 946.048 552.46 943.937 548.582C942.97 546.806 948.719 546.927 952.802 545.733C956.886 544.538 963.194 543.003 963.194 543.003C963.194 543.003 967.857 544.489 972.344 544.588Z" fill="#0B4870"/>
<path d="M903.651 417.538L914.146 414.228L923.436 416.464C928.666 415.171 930.407 415.243 941.116 412.625C950.16 410.415 960.545 406.007 960.545 406.007L968.243 393.739C973.223 394.169 983.686 399.335 983.686 399.335C983.686 399.335 969.375 417.843 965.3 419.134C961.225 420.425 933.751 423.609 923.277 422.467C919.978 422.107 913.523 418.788 913.523 418.788L905.241 420.096L898.784 424.239L897.657 423.352L900.225 420.678L903.651 417.538Z" fill="#E9BB88"/>
<path d="M976.182 370.379C976.182 370.379 989.525 372.503 989.299 383.909C989.152 391.338 978.433 405.215 978.433 405.215C978.433 405.215 972.547 397.467 965.302 395.315C965.302 395.315 970.007 382.194 971.447 378.091C973.255 372.932 976.182 370.379 976.182 370.379Z" fill="#FFBE55"/>
<path d="M998.431 485.249H1024.92V471.691H998.431V485.249Z" fill="#ECE8EC"/>
<path d="M1001.98 418.958C1000.68 402.558 999.747 386.131 999.171 369.693C1015.55 362.764 1052.07 365.856 1055.48 376.137C1059.11 387.047 1045.3 418.103 1045.3 429.724C1045.3 441.346 1050.05 449.739 1050.73 454.903C1051.41 460.067 1048.01 463.941 1048.01 463.941H1006.15C1005.08 448.93 1003.17 433.939 1001.98 418.958Z" fill="#ECE8EC"/>
<path d="M1001.98 418.958C1000.62 401.865 999.673 384.746 999.103 367.613C1017.1 363.615 1045.69 367.099 1048.69 376.137C1052.32 387.047 1038.5 418.103 1038.5 429.724C1038.5 441.346 1043.26 449.739 1043.94 454.903C1044.62 460.068 1041.22 463.941 1041.22 463.941H1006.15C1005.08 448.93 1003.17 433.939 1001.98 418.958Z" fill="white"/>
<path d="M969.225 476.21H1038.98C1043.97 476.21 1048.01 472.368 1048.01 467.628V463.943H969.226V476.21H969.225Z" fill="white"/>
<path d="M984.167 435.75C984.167 435.75 946.477 457.037 944.235 465.826C941.561 476.314 959.638 538.42 959.638 538.42C963.901 541.146 971.804 540.226 974.711 537.745C974.711 537.745 960.17 484.603 961.754 481.052C965.632 472.362 998.658 462.006 1009.07 452.536C1019.49 443.067 1020.39 434.028 1020.39 434.028L984.167 435.75Z" fill="#0B4870"/>
<path d="M1027.26 426.231C1027.26 426.231 1040.1 451.677 1028.55 462.006C1023.26 466.736 991.639 462.436 989.828 467.172L1008.92 527.464C1008.92 527.464 1005.55 529.411 998.761 532.638C998.761 532.638 959.038 466.095 963.113 457.486C967.189 448.878 994.583 443.928 995.941 439.194C997.299 434.459 998.205 426.712 998.205 426.712L1027.26 426.231Z" fill="#0B4870"/>
<path d="M972.795 357.212C973.614 360.167 975.072 363.422 978.123 364.383C980.927 365.267 983.906 363.841 986.445 362.403C989.432 360.712 992.46 358.858 994.37 356.098C997.269 351.909 999.613 346.792 999.288 341.788C999.173 340.018 996.449 337.849 995.319 336.439C994.522 335.444 993.331 334.809 992.142 334.272C989.318 332.994 986.305 332.099 983.219 331.62C978.067 330.822 972.339 331.917 971.308 337.296C970.084 343.698 971.069 350.986 972.795 357.212Z" fill="#F5D09F"/>
<path d="M1009.13 365.267C1009.13 365.267 1009.07 364.301 1005.45 363.44C1004.41 363.193 1003.11 363.19 1002.28 362.504C999.352 360.067 996.658 355.531 995.66 352.19C995.512 351.695 995.367 351.17 995.504 350.672C993.055 352.645 990.689 354.71 988.414 356.86C987.634 357.596 982.919 357.18 983.49 358.178C983.649 358.457 984.85 361.069 986.033 363.599C983.746 365.023 981.227 366.883 981.227 366.883L978.057 383.669L987.34 388.619C987.34 388.619 997.754 386.467 1004.55 383.024C1011.34 379.582 1009.13 365.267 1009.13 365.267Z" fill="#F5D09F"/>
<path d="M1005.45 363.44C1005.45 363.44 1002.73 368.174 995.941 370.972C989.149 373.769 983.036 365.376 983.036 365.376L976.183 370.378C976.183 370.378 975.565 393.261 978.509 405.743C981.452 418.226 984.169 435.75 984.169 435.75C984.169 435.75 987.205 439.981 991.084 440.23C995.83 440.536 1002.37 437.003 1012.7 438.762C1024.15 440.716 1032.68 439.002 1032.68 439.002C1032.68 439.002 1023.87 398.057 1021.83 389.88C1019.79 381.701 1014.51 364.947 1014.51 364.947C1014.51 364.947 1009.98 363.871 1005.45 363.44Z" fill="#FFBE55"/>
<path d="M885.123 424.401H925.133V421.151H882.732V422.127C882.731 423.383 883.802 424.401 885.123 424.401Z" fill="#ECE8EC"/>
<path d="M898.045 384.114C899.224 384.114 900.276 384.816 900.677 385.868L914.142 421.195L913.311 421.525L913.53 422.141L882.731 421.152L869.622 387.697C868.94 385.958 870.294 384.105 872.248 384.106L898.045 384.114Z" fill="#FFBE55"/>
<path d="M887.51 405.028C888.423 408.361 890.215 411.02 891.51 410.965C892.806 410.911 893.116 408.165 892.202 404.831C891.289 401.498 889.497 398.839 888.202 398.894C886.906 398.948 886.596 401.695 887.51 405.028Z" fill="white"/>
<path d="M980.409 338.413C976.003 338.137 971.369 338.113 967.518 336.207C965.646 335.28 963.966 333.802 963.608 331.935C963.25 330.069 964.687 327.905 966.829 327.77C967.269 327.742 967.75 327.79 968.119 327.574C968.592 327.299 968.67 326.729 968.741 326.233C969.22 322.912 972.158 319.564 975.954 319.646C979.05 319.713 981.93 321.977 984.928 321.292C985.851 321.081 986.66 320.605 987.506 320.218C990.049 319.05 993.043 318.664 995.858 319.139C998.83 319.64 1001.98 321.868 1001.25 324.457C1001.01 325.321 1000.36 326.073 1000.18 326.951C999.563 330.082 1004.81 331.643 1005.85 334.687C1006.79 337.457 1003.91 340.216 1004.13 343.1C1004.25 344.704 1005.24 346.588 1003.96 347.729C1003.27 348.338 1002.1 348.49 1001.64 349.246C1001.01 350.275 1002.18 351.445 1002.28 352.61C1002.41 354.055 1000.67 355.265 999.037 355.142C997.4 355.02 996.038 353.87 995.395 352.537C994.75 351.205 994.703 349.712 994.754 348.265C997.526 347.523 999.232 343.182 996.624 342.072C995.233 341.48 993.754 342.916 993.226 344.135C990.472 339.978 986.075 338.413 980.409 338.413Z" fill="#0B4870"/>
<path d="M991.663 345.098C990.748 347.101 989.832 349.104 988.917 351.107C988.55 351.91 988.162 352.742 987.461 353.309C986.391 354.176 984.825 354.232 983.446 353.967C982.068 353.701 979.433 352.981 978.031 353.095C974.83 353.355 972.473 354.813 972.269 355.181C971.857 355.925 972.434 357.083 972.447 357.923C972.46 358.805 972.312 359.713 971.834 360.47C971.515 360.976 971.062 361.393 970.637 361.823C969.5 362.974 968.476 364.408 968.569 365.983C968.696 368.138 970.785 369.643 972.675 370.837C973.886 371.602 975.139 372.383 976.569 372.633C977.527 372.802 978.512 372.721 979.483 372.638C981.506 372.467 983.547 372.294 985.49 371.728C987.432 371.161 989.293 370.163 990.514 368.62C991.556 367.302 992.065 365.683 992.551 364.1C993.336 361.54 994.109 358.944 994.206 356.28C994.298 353.783 993.79 351.305 993.524 348.818C993.292 346.648 993.244 344.461 993.378 342.284C993.394 342.019 993.425 341.377 993.012 341.323C992.556 341.262 992.715 341.915 992.653 342.186C992.417 343.207 992.102 344.135 991.663 345.098Z" fill="#0B4870"/>
<path d="M974.775 356.527C974.341 357.421 974.563 358.564 975.306 359.251C975.641 359.561 976.1 359.785 976.564 359.734C977.028 359.683 977.462 359.291 977.424 358.848C977.41 358.685 977.341 358.506 977.433 358.368C977.522 358.233 977.715 358.21 977.882 358.202C978.508 358.17 979.271 358.208 979.564 358.733C979.653 358.893 979.684 359.08 979.785 359.232C980.025 359.597 980.56 359.642 981.011 359.607C981.661 359.556 982.303 359.42 982.915 359.203C983.226 359.093 983.537 358.958 983.764 358.727C983.99 358.497 984.116 358.156 984.004 357.86C983.91 357.614 983.677 357.446 983.453 357.295C981.496 355.971 976.351 353.286 974.775 356.527Z" fill="#F5D09F"/>
<path d="M1003.39 467.616C1003.39 467.616 1002.09 432.879 1010.25 430.585C1018.4 428.291 1036.35 428.946 1036.35 428.946L1037.98 435.173C1037.98 435.173 1014.49 433.534 1011.22 437.795C1007.96 442.055 1011.22 467.943 1011.22 467.943L1003.39 467.616Z" fill="white"/>
<path d="M937.664 416.456L948.158 413.146L957.449 415.382C962.679 414.09 964.419 414.161 975.13 411.544C984.174 409.334 994.559 404.925 994.559 404.925L1006.34 388.188C1011.32 388.618 1017.7 398.254 1017.7 398.254C1017.7 398.254 1003.39 416.763 999.314 418.054C995.239 419.345 964.152 422.772 953.679 421.63C950.38 421.27 944.546 417.838 944.546 417.838L939.256 419.015L932.799 423.159L931.672 422.272L934.24 419.598L937.664 416.456Z" fill="#F5D09F"/>
<path d="M1014.51 364.946C1014.51 364.946 1028.54 367.099 1028.32 378.505C1028.17 385.934 1017.45 399.811 1017.45 399.811C1017.45 399.811 1011.56 392.063 1004.32 389.911C1004.32 389.911 1009.98 379.366 1010.43 375.062C1010.88 370.757 1014.51 364.946 1014.51 364.946Z" fill="#FFBE55"/>
<path d="M916.534 424.401H956.544V421.151H914.143V422.127C914.142 423.383 915.213 424.401 916.534 424.401Z" fill="white"/>
<path d="M938.453 423.192H952.586V422.185H938.453V423.192Z" fill="#ECE8EC"/>
<path d="M934.242 423.192H936.332V422.185H934.242V423.192Z" fill="#ECE8EC"/>
<path d="M1000.99 555.306H1003.59L974.275 434.077H968.756L1000.99 555.306Z" fill="white"/>
<path d="M921.558 554.038H924.161L943.02 434.077H937.499L921.558 554.038Z" fill="white"/>
<path d="M882.058 554.771H884.66L863.937 434.077H858.416L882.058 554.771Z" fill="white"/>
<path d="M809.028 553.489H811.631L836.572 434.077H831.052L809.028 553.489Z" fill="white"/>
<path d="M852.37 434.078H989.876V428.658H852.37V434.078Z" fill="#7DADDF"/>
<path d="M808.277 434.078H935.081V428.658H808.277V434.078Z" fill="#93BCEB"/>
<path d="M855.428 431.377H1002.49V424.124H855.428V431.377Z" fill="#93BCEB"/>
<path d="M788.996 431.377H925.359V424.124H788.996V431.377Z" fill="#CCE1F7"/>
<path d="M605.646 251.561C597.843 238.85 587.256 228.787 573.886 221.369C560.514 213.951 545.915 210.243 530.08 210.243C514.247 210.243 499.643 213.952 486.273 221.369C472.902 228.786 462.317 238.85 454.512 251.561C446.71 264.272 442.807 278.151 442.807 293.2C442.807 311.277 448.356 327.533 459.454 341.971C470.553 356.409 484.89 366.401 502.464 371.946C504.51 372.306 506.024 372.052 507.009 371.19C507.994 370.326 508.485 369.245 508.485 367.95C508.485 367.734 508.466 365.791 508.428 362.117C508.389 358.444 508.371 355.239 508.371 352.505L505.758 352.935C504.091 353.225 501.989 353.348 499.451 353.313C496.914 353.279 494.281 353.026 491.554 352.557C488.827 352.091 486.289 351.011 483.94 349.318C481.594 347.626 479.927 345.411 478.941 342.677L477.805 340.191C477.048 338.537 475.855 336.699 474.226 334.683C472.596 332.667 470.949 331.299 469.282 330.579L468.487 330.037C467.957 329.678 467.465 329.244 467.011 328.74C466.556 328.237 466.216 327.733 465.989 327.228C465.761 326.723 465.949 326.308 466.557 325.984C467.163 325.659 468.26 325.501 469.853 325.501L472.125 325.823C473.64 326.111 475.514 326.973 477.75 328.415C479.984 329.855 481.82 331.727 483.26 334.029C485.003 336.983 487.104 339.233 489.567 340.781C492.028 342.33 494.51 343.103 497.009 343.103C499.507 343.103 501.667 342.922 503.486 342.564C505.303 342.204 507.008 341.663 508.599 340.942C509.281 336.115 511.137 332.408 514.167 329.816C509.849 329.385 505.967 328.734 502.519 327.871C499.073 327.006 495.512 325.602 491.838 323.656C488.163 321.712 485.114 319.299 482.691 316.42C480.267 313.539 478.277 309.757 476.725 305.078C475.172 300.396 474.396 294.995 474.396 288.874C474.396 280.159 477.389 272.743 483.375 266.621C480.571 260.069 480.836 252.724 484.17 244.586C486.366 243.937 489.625 244.424 493.942 246.044C498.26 247.665 501.422 249.053 503.43 250.203C505.438 251.354 507.047 252.329 508.26 253.12C515.307 251.249 522.579 250.312 530.078 250.312C537.578 250.312 544.851 251.249 551.898 253.12L556.216 250.528C559.169 248.799 562.655 247.214 566.669 245.774C570.683 244.334 573.754 243.938 575.876 244.587C579.285 252.725 579.588 260.07 576.784 266.622C582.768 272.745 585.762 280.163 585.762 288.875C585.762 294.996 584.982 300.414 583.433 305.131C581.881 309.849 579.874 313.627 577.413 316.473C574.949 319.318 571.88 321.713 568.206 323.656C564.532 325.601 560.97 327.005 557.523 327.87C554.076 328.734 550.194 329.385 545.876 329.817C549.814 333.057 551.784 338.17 551.784 345.154V367.945C551.784 369.24 552.258 370.321 553.205 371.185C554.152 372.047 555.648 372.302 557.694 371.939C575.271 366.395 589.608 356.405 600.707 341.964C611.803 327.527 617.354 311.271 617.354 293.194C617.35 278.15 613.446 264.272 605.646 251.561Z" fill="#C9C9C9"/>
<path d="M427.411 527.742H329.888C327.292 527.742 325.187 525.741 325.187 523.273V411.907C325.187 409.439 327.292 407.438 329.888 407.438H427.411C430.008 407.438 432.112 409.439 432.112 411.907V523.273C432.112 525.741 430.008 527.742 427.411 527.742Z" fill="#CCE1F7"/>
<path d="M358.637 423.096H348.597V427.029H358.637V423.096Z" fill="white"/>
<path d="M382.297 423.096H364.184V427.029H382.297V423.096Z" fill="white"/>
<path d="M393.116 431.455H355.492V435.388H393.116V431.455Z" fill="white"/>
<path d="M408.703 431.455H398.663V435.388H408.703V431.455Z" fill="#3FC9EE"/>
<path d="M393.116 439.812H355.492V443.746H393.116V439.812Z" fill="white"/>
<path d="M408.703 439.812H398.663V443.746H408.703V439.812Z" fill="#3FC9EE"/>
<path d="M393.116 448.172H355.492V452.105H393.116V448.172Z" fill="white"/>
<path d="M408.703 448.172H398.663V452.105H408.703V448.172Z" fill="#3FC9EE"/>
<path d="M358.637 456.531H348.597V460.464H358.637V456.531Z" fill="white"/>
<path d="M382.297 456.531H364.184V460.464H382.297V456.531Z" fill="white"/>
<path d="M374.304 464.89H355.492V468.823H374.304V464.89Z" fill="#3FC9EE"/>
<path d="M408.703 464.89H379.851V468.823H408.703V464.89Z" fill="white"/>
<path d="M374.304 473.248H355.492V477.181H374.304V473.248Z" fill="#3FC9EE"/>
<path d="M408.703 473.248H379.851V477.181H408.703V473.248Z" fill="white"/>
<path d="M374.304 481.607H355.492V485.54H374.304V481.607Z" fill="#3FC9EE"/>
<path d="M408.703 481.607H379.851V485.54H408.703V481.607Z" fill="white"/>
<path d="M439.74 543.006H317.559V461.943L378.65 510.764L439.74 461.943V543.006Z" fill="#FFBE55"/>
<path opacity="0.81" d="M317.559 543.006L378.65 475.532L439.74 543.006H317.559Z" fill="#FFBE55"/>
<path d="M366.324 217.175H330.223C319.289 217.175 310.427 225.601 310.427 235.995V260.348C310.427 268.589 316.009 275.575 323.768 278.122L324.401 291.174L342.187 279.166H366.324C377.258 279.166 386.121 270.74 386.121 260.346V235.993C386.122 225.6 377.258 217.175 366.324 217.175Z" fill="#CCE1F7"/>
<path d="M409.936 182.657H362.308C347.883 182.657 336.19 193.773 336.19 207.485V239.615C336.19 253.327 347.883 264.442 362.308 264.442H394.153L417.617 280.284L418.453 263.065C428.69 259.705 436.054 250.488 436.054 239.616V207.486C436.054 193.773 424.361 182.657 409.936 182.657Z" fill="white"/>
<path d="M370.931 222.6L361.986 225.612L370.931 228.624V232.515L357.108 227.665V223.56L370.931 218.71V222.6Z" fill="#FFBE55"/>
<path d="M388.933 212.498H393.671L384.417 237.605H379.679L388.933 212.498Z" fill="#FFBE55"/>
<path d="M415.961 223.559V227.663L402.137 232.514V228.623L411.083 225.611L402.137 222.599V218.707L415.961 223.559Z" fill="#FFBE55"/>
<path d="M665.058 205.454H631.688V217.066H665.058V205.454Z" fill="#FFBE55"/>
<path d="M743.697 205.454H683.494V217.066H743.697V205.454Z" fill="#FFBE55"/>
<path d="M779.654 230.13H654.608V241.743H779.654V230.13Z" fill="white"/>
<path d="M831.459 230.13H798.09V241.743H831.459V230.13Z" fill="#3FC9EE"/>
<path d="M779.654 254.807H654.608V266.419H779.654V254.807Z" fill="white"/>
<path d="M831.459 254.807H798.09V266.419H831.459V254.807Z" fill="#3FC9EE"/>
<path d="M779.654 279.483H654.608V291.095H779.654V279.483Z" fill="white"/>
<path d="M831.459 279.483H798.09V291.095H831.459V279.483Z" fill="#3FC9EE"/>
<path d="M665.058 304.158H631.688V315.771H665.058V304.158Z" fill="#FFBE55"/>
<path d="M743.697 304.158H683.494V315.771H743.697V304.158Z" fill="#FFBE55"/>
<path d="M717.13 328.835H654.608V340.447H717.13V328.835Z" fill="#3FC9EE"/>
<path d="M831.459 328.835H735.568V340.447H831.459V328.835Z" fill="white"/>
<path d="M717.13 353.511H654.608V365.123H717.13V353.511Z" fill="#3FC9EE"/>
<path d="M831.459 353.511H735.568V365.123H831.459V353.511Z" fill="white"/>
<path d="M717.13 378.188H654.608V389.8H717.13V378.188Z" fill="#3FC9EE"/>
<path d="M831.459 378.188H735.568V389.8H831.459V378.188Z" fill="white"/>
</svg>
