<svg width="343" height="62" viewBox="0 0 343 62" fill="none" xmlns="http://www.w3.org/2000/svg">
<path d="M305.565 36.4026H337.584C337.489 32.1477 336.159 28.3657 333.309 24.8672C330.553 21.3688 326.658 19.6669 321.527 19.6669C316.681 19.6669 312.881 21.3688 310.03 24.7727C307.275 28.2711 305.755 32.1477 305.565 36.4026ZM300.529 38.5773C300.529 32.1477 302.524 26.7583 306.515 22.3143C310.505 17.8704 315.541 15.6011 321.622 15.6011C328.083 15.6011 333.119 17.7758 336.824 22.2198C340.53 26.6637 342.43 32.1477 342.43 38.8609V40.0901H305.565C305.755 45.1014 307.465 49.1671 310.6 52.4765C313.736 55.7858 317.821 57.4877 322.857 57.4877C328.748 57.4877 333.499 55.5021 337.299 51.4364L339.77 54.5566C335.209 59.2842 329.413 61.648 322.572 61.648C316.111 61.648 310.885 59.4733 306.8 55.2185C302.714 50.9636 300.529 45.385 300.529 38.5773ZM84.9424 38.5773C84.9424 41.7921 85.8925 44.345 87.6978 46.3306C89.5031 48.3162 91.8784 49.2617 94.6338 49.2617C96.154 49.2617 97.6742 48.8835 99.2895 48.1271C100.905 47.3706 102.14 46.4251 103.09 45.2905V31.8641C102.14 30.7295 100.905 29.7839 99.2895 29.0275C97.6742 28.2711 96.154 27.9874 94.6338 27.9874C91.7834 27.9874 89.5031 28.933 87.6978 30.9186C85.7975 32.8096 84.9424 35.3625 84.9424 38.5773ZM261.953 54.6512L264.804 51.1527C266.324 53.0438 268.319 54.5566 270.789 55.7858C273.26 57.015 276.015 57.5823 279.056 57.5823C282.666 57.5823 285.517 56.7313 287.607 55.1239C289.697 53.422 290.837 51.3418 290.837 48.6944C290.837 46.5197 289.887 44.8177 287.987 43.494C286.087 42.2648 283.806 41.2247 281.051 40.6574C278.391 39.9956 275.635 39.3337 272.88 38.5773C270.124 37.8209 267.844 36.5917 265.849 34.7952C263.948 32.9987 262.998 30.6349 262.998 27.7983C262.998 24.2999 264.424 21.4633 267.274 19.0995C270.124 16.7357 273.925 15.6011 278.771 15.6011C285.422 15.6011 290.647 17.7758 294.543 22.0307L291.883 25.34C289.032 21.4633 284.662 19.5723 278.771 19.5723C275.445 19.5723 272.785 20.3287 270.789 21.8416C268.794 23.3544 267.844 25.2454 267.844 27.6092C267.844 29.5948 268.794 31.2022 270.694 32.3368C272.595 33.4715 274.875 34.3224 277.63 34.9843C280.291 35.6462 283.046 36.308 285.707 37.0645C288.367 37.8209 290.742 39.2392 292.643 41.1302C294.543 43.0212 295.493 45.5741 295.493 48.6944C295.493 52.4765 294.068 55.5021 291.217 57.9605C288.367 60.4188 284.281 61.5535 279.056 61.5535C271.74 61.648 266.134 59.2842 261.953 54.6512ZM136.915 33.6606H155.063C154.873 31.8641 154.017 30.2567 152.497 28.933C151.072 27.5147 148.887 26.8528 145.941 26.8528C143.186 26.8528 141.001 27.5147 139.575 28.8384C138.055 30.2567 137.2 31.8641 136.915 33.6606ZM225.658 47.087C225.658 50.2072 226.798 52.8547 228.983 54.8403C231.169 56.8259 234.114 57.8659 237.725 57.8659C243.521 57.8659 247.986 55.8803 251.027 51.8146V42.2648C247.986 38.1991 243.521 36.2135 237.725 36.2135C234.114 36.2135 231.264 37.2536 228.983 39.3337C226.798 41.3193 225.658 43.9668 225.658 47.087ZM6.74598 22.0307C11.3066 17.7758 17.0075 15.6011 23.9435 15.6011C28.3141 15.6011 32.0197 16.3575 35.0601 17.9649C38.1006 19.5723 40.3809 21.4633 41.9011 23.7326L32.9698 32.1477C31.0695 29.4057 28.3141 27.9874 24.6086 27.9874C21.6632 27.9874 19.1928 28.933 17.1975 30.824C15.2972 32.7151 14.2521 35.268 14.2521 38.5773C14.2521 41.8866 15.2022 44.4395 17.1975 46.3306C19.0978 48.2216 21.5681 49.2617 24.6086 49.2617C28.1241 49.2617 30.8795 47.8434 32.9698 45.0068L42.0911 53.5165C40.5709 55.7858 38.2906 57.6768 35.2501 59.2842C32.2097 60.8916 28.5042 61.648 24.1335 61.648C17.1975 61.648 11.4967 59.4733 6.93601 55.2185C2.28033 50.8691 0 45.385 0 38.5773C0 31.7695 2.28033 26.2855 6.74598 22.0307ZM220.717 46.9924C220.717 42.4539 222.237 38.8609 225.278 36.308C228.318 33.7551 231.929 32.4314 236.109 32.4314C242.285 32.4314 247.321 34.5115 251.122 38.6718V29.7839C251.122 26.6637 249.981 24.2054 247.796 22.4089C245.611 20.6124 242.76 19.6669 239.34 19.6669C233.829 19.6669 229.268 21.8416 225.468 26.0964L222.807 22.7871C227.368 17.8704 233.069 15.412 239.815 15.412C244.566 15.412 248.461 16.5466 251.407 19.005C254.352 21.3688 255.872 24.8672 255.872 29.5948V60.5134H251.122V55.313C247.321 59.4733 242.285 61.5535 236.109 61.648C232.024 61.648 228.413 60.3243 225.373 57.6768C222.237 55.0294 220.717 51.5309 220.717 46.9924ZM128.174 22.2198C132.544 17.7758 138.15 15.6011 144.896 15.6011C151.547 15.6011 156.963 17.8704 161.143 22.3143C165.324 26.7583 167.414 32.7151 167.414 40.0901V43.3049H136.06C136.63 45.4796 137.77 47.1815 139.67 48.5053C141.571 49.829 144.041 50.4909 147.081 50.4909C148.792 50.4909 150.692 50.1127 152.782 49.4508C154.873 48.7889 156.583 47.8434 157.818 46.8033L163.994 55.9749C161.904 57.8659 159.148 59.2842 155.823 60.2297C152.497 61.2698 149.077 61.7426 145.561 61.7426C138.625 61.7426 132.924 59.6624 128.364 55.4076C123.803 51.1527 121.523 45.5741 121.523 38.6718C121.618 32.0532 123.803 26.6637 128.174 22.2198ZM180.431 49.5453C181.761 51.72 183.757 53.6111 186.512 55.1239C189.173 56.6368 192.023 57.3932 194.968 57.3932C199.814 57.3932 203.52 55.5967 206.275 52.0982C209.03 48.5998 210.361 44.1559 210.361 38.6718C210.361 33.1878 209.03 28.6493 206.275 25.1509C203.52 21.6524 199.814 19.856 194.968 19.856C192.023 19.856 189.268 20.6124 186.512 22.2198C183.757 23.8271 181.761 25.7182 180.431 27.8929V49.5453ZM76.0111 21.8416C79.6216 17.6813 84.2773 15.6011 89.9781 15.6011C95.2989 15.6011 99.6695 17.6813 102.995 21.9361V0H116.962V60.5134H102.995V55.4076C99.3845 59.4733 95.0138 61.5535 89.9781 61.648C84.3723 61.648 79.7166 59.5679 76.0111 55.5021C74.1108 53.3274 72.6856 50.7745 71.7355 47.7488L81.1418 38.3882V37.6318L72.1155 28.5548C73.0657 26.0018 74.3008 23.7326 76.0111 21.8416ZM175.776 60.5134V0H180.526V23.8271C184.422 18.3431 189.553 15.6957 195.824 15.6011C201.714 15.6011 206.465 17.6813 210.076 21.9361C213.686 26.191 215.491 31.7695 215.491 38.6718C215.491 45.5741 213.686 51.1527 210.076 55.4076C206.465 59.5679 201.714 61.648 195.824 61.648C192.688 61.648 189.743 60.8916 187.082 59.3788C184.422 57.8659 182.237 55.8803 180.526 53.5165V60.5134H175.776Z" fill="#1B6DB2"/>
<path d="M55.1081 53.422L51.2125 57.4877L32.3998 38.3882V37.6318L51.3075 18.4377L55.2031 22.5034L59.3837 18.4377L78.3865 37.6318V38.3882L59.3837 57.4877L55.1081 53.422ZM55.3931 29.0275L46.2718 38.01L55.4881 46.8979L64.2294 38.01L55.3931 29.0275Z" fill="#1B6DB2"/>
</svg>
